<svg width="360" height="80" viewBox="0 0 360 80" fill="none" xmlns="http://www.w3.org/2000/svg">
<path d="M0.5 40C0.5 31.7764 0.941291 25.2022 2.1059 19.9619C3.26926 14.7273 5.1477 10.8544 8.00105 8.00105C10.8544 5.1477 14.7273 3.26926 19.9619 2.1059C25.2022 0.941291 31.7764 0.5 40 0.5H320C328.224 0.5 334.798 0.941291 340.038 2.1059C345.273 3.26926 349.146 5.1477 351.999 8.00105C354.852 10.8544 356.731 14.7273 357.894 19.9619C359.059 25.2022 359.5 31.7764 359.5 40C359.5 48.2236 359.059 54.7978 357.894 60.0381C356.731 65.2727 354.852 69.1456 351.999 71.9989C349.146 74.8523 345.273 76.7307 340.038 77.8941C334.798 79.0587 328.224 79.5 320 79.5H40C31.7764 79.5 25.2022 79.0587 19.9619 77.8941C14.7273 76.7307 10.8544 74.8523 8.00105 71.9989C5.1477 69.1456 3.26926 65.2727 2.1059 60.0381C0.941291 54.7978 0.5 48.2236 0.5 40Z" fill="white" fill-opacity="0.09" stroke="white"/>
<path d="M144.65 46.6367C144.803 45.7461 144.732 44.9902 144.439 44.3691C144.146 43.748 143.707 43.2266 143.121 42.8047C142.535 42.3828 141.879 42.0312 141.152 41.75C140.438 41.457 139.729 41.1992 139.025 40.9766C138.146 40.6836 137.268 40.3496 136.389 39.9746C135.51 39.5879 134.719 39.1191 134.016 38.5684C133.312 38.0176 132.768 37.3496 132.381 36.5645C132.006 35.7676 131.889 34.8242 132.029 33.7344C132.158 32.5977 132.516 31.6074 133.102 30.7637C133.699 29.9199 134.438 29.2227 135.316 28.6719C136.207 28.1211 137.174 27.7109 138.217 27.4414C139.26 27.1719 140.297 27.043 141.328 27.0547C142.828 27.0664 144.164 27.3887 145.336 28.0215C146.508 28.6543 147.398 29.5449 148.008 30.6934C148.629 31.8301 148.869 33.166 148.729 34.7012H146.619C146.76 33.5176 146.619 32.498 146.197 31.6426C145.787 30.7754 145.154 30.1074 144.299 29.6387C143.443 29.1699 142.436 28.9297 141.275 28.918C140.244 28.9062 139.219 29.0703 138.199 29.4102C137.18 29.7383 136.295 30.2598 135.545 30.9746C134.807 31.6777 134.344 32.5859 134.156 33.6992C134.016 34.5312 134.098 35.2461 134.402 35.8438C134.719 36.4297 135.17 36.9277 135.756 37.3379C136.342 37.7363 136.986 38.0703 137.689 38.3398C138.404 38.6094 139.084 38.8438 139.729 39.043C140.654 39.3359 141.562 39.6875 142.453 40.0977C143.355 40.4961 144.158 40.9883 144.861 41.5742C145.564 42.1484 146.098 42.8516 146.461 43.6836C146.824 44.5039 146.936 45.4766 146.795 46.6016C146.654 47.7734 146.279 48.7871 145.67 49.6426C145.072 50.498 144.316 51.2012 143.402 51.752C142.5 52.291 141.516 52.6953 140.449 52.9648C139.395 53.2344 138.334 53.3633 137.268 53.3516C136.107 53.3516 135.012 53.1875 133.98 52.8594C132.949 52.5195 132.047 52.0273 131.273 51.3828C130.5 50.7266 129.92 49.9238 129.533 48.9746C129.146 48.0254 129.012 46.9238 129.129 45.6699L131.238 45.6875C131.121 46.6602 131.197 47.5098 131.467 48.2363C131.748 48.9629 132.176 49.5664 132.75 50.0469C133.324 50.5273 134.004 50.8906 134.789 51.1367C135.574 51.3711 136.418 51.4941 137.32 51.5059C138.387 51.5176 139.441 51.3535 140.484 51.0137C141.539 50.6738 142.447 50.1465 143.209 49.4316C143.971 48.7168 144.451 47.7852 144.65 46.6367ZM162.984 27.4062L158.572 53H156.48L160.91 27.4062H162.984ZM171.492 27.4062L171.193 29.2695H152.086L152.402 27.4062H171.492ZM181.986 29.041L169.295 53H167.01L180.809 27.4238H182.408L181.986 29.041ZM185.678 53L181.195 28.8477L181.336 27.4062H182.83L187.805 53H185.678ZM185.678 43.9648L185.361 45.8281H172.16L172.459 43.9648H185.678ZM195.891 27.4062H203.818C205.33 27.4414 206.666 27.7461 207.826 28.3203C208.998 28.8945 209.883 29.7266 210.48 30.8164C211.09 31.9062 211.295 33.2539 211.096 34.8594C210.932 36.1602 210.527 37.2852 209.883 38.2344C209.238 39.1719 208.424 39.957 207.439 40.5898C206.467 41.2109 205.389 41.6973 204.205 42.0488L203.432 42.3301H194.66L194.941 40.4844L202.025 40.502C203.162 40.4902 204.223 40.2559 205.207 39.7988C206.191 39.3418 207.018 38.6973 207.686 37.8652C208.354 37.0215 208.781 36.0195 208.969 34.8594C209.156 33.6641 209.045 32.6562 208.635 31.8359C208.236 31.0156 207.609 30.3887 206.754 29.9551C205.91 29.5215 204.92 29.293 203.783 29.2695H197.684L193.57 53H191.461L195.891 27.4062ZM206.842 53L202.377 41.5566L204.521 41.5215L209.092 52.7539L209.074 53H206.842ZM225.035 27.4062L220.623 53H218.531L222.961 27.4062H225.035ZM233.543 27.4062L233.244 29.2695H214.137L214.453 27.4062H233.543Z" fill="#C4C4C4"/>
</svg>
